<svg xmlns="http://www.w3.org/2000/svg" viewBox="0 0 71.6 81.12"><defs><style>.cls-1{fill:#464447;}</style></defs><title>Asset 8</title><g id="Layer_2" data-name="Layer 2"><g id="Layer_1-2" data-name="Layer 1"><path class="cls-1" d="M71.6,81.12H0V73H71.6ZM2.16,79H69.44V75.18H2.16Z"/><path class="cls-1" d="M67.56,75.18H4.05V73.72a31.76,31.76,0,1,1,63.51,0ZM6.21,73H65.39A29.6,29.6,0,0,0,6.21,73Z"/><path class="cls-1" d="M41.39,43.36H39.23V42.15a3.43,3.43,0,0,0-6.85,0v1.21H30.22V42.15a5.59,5.59,0,0,1,11.17,0Z"/><path class="cls-1" d="M60.57,67.7A29.66,29.66,0,0,0,41.33,48.93L42,46.86A31.84,31.84,0,0,1,62.62,67Z"/><path class="cls-1" d="M18.57,41.27,17,39.74A3.33,3.33,0,0,0,17,35a5.5,5.5,0,0,1,0-7.83l.08-.08a3.37,3.37,0,0,0,0-4.75L17,22.24a5.5,5.5,0,0,1,0-7.83L18.54,16a3.32,3.32,0,0,0-1,2.37,3.36,3.36,0,0,0,1,2.39l.08.08a5.52,5.52,0,0,1,0,7.8l-.08.08a3.34,3.34,0,0,0,0,4.77,5.5,5.5,0,0,1,0,7.83Z"/><path class="cls-1" d="M54.59,41.27l-1.53-1.53a3.37,3.37,0,0,0,1-2.39A3.31,3.31,0,0,0,53,35a5.52,5.52,0,0,1,0-7.83l.08-.08a3.34,3.34,0,0,0,0-4.75L53,22.24a5.52,5.52,0,0,1,0-7.83L54.55,16a3.36,3.36,0,0,0,0,4.76l.08.08a5.52,5.52,0,0,1,0,7.8l-.08.08a3.31,3.31,0,0,0-1,2.39,3.35,3.35,0,0,0,1,2.38,5.52,5.52,0,0,1,0,7.83Z"/><path class="cls-1" d="M36.58,26.86l-1.53-1.52a3.37,3.37,0,0,0,0-4.77,5.5,5.5,0,0,1,0-7.83l.07-.08a3.34,3.34,0,0,0,0-4.74L35,7.83A5.5,5.5,0,0,1,35,0l1.51,1.54a3.36,3.36,0,0,0,0,4.76l.09.09a5.52,5.52,0,0,1,0,7.8l-.08.08a3.34,3.34,0,0,0,0,4.76,5.52,5.52,0,0,1,0,7.83Z"/></g></g></svg>