<svg xmlns="http://www.w3.org/2000/svg" xmlns:xlink="http://www.w3.org/1999/xlink" viewBox="0 0 919.95 478.11"><defs><style>.cls-1,.cls-17,.cls-18,.cls-19,.cls-26,.cls-4{fill:none;}.cls-2,.cls-25{fill:#fff;}.cls-3{clip-path:url(#clip-path);}.cls-18,.cls-4{stroke:#ecece4;}.cls-13,.cls-17,.cls-18,.cls-19,.cls-26,.cls-4{stroke-miterlimit:10;}.cls-26,.cls-4{stroke-width:2px;}.cls-5{fill:#464447;}.cls-11,.cls-6,.cls-9{font-size:16px;fill:#7f7f7f;}.cls-11,.cls-25,.cls-6,.cls-9{font-family:Gotham-Bold, Gotham;font-weight:700;}.cls-6{letter-spacing:0.14em;}.cls-7{letter-spacing:0.04em;}.cls-11,.cls-8{letter-spacing:0.14em;}.cls-22,.cls-9{letter-spacing:0.14em;}.cls-10{letter-spacing:0.04em;}.cls-12{letter-spacing:0.13em;}.cls-13{fill:#f2f2f2;}.cls-13,.cls-26{stroke:#464447;}.cls-14{letter-spacing:0.02em;}.cls-15{letter-spacing:0.08em;}.cls-16{letter-spacing:0.14em;}.cls-17{stroke:#7f7f7f;stroke-width:5px;}.cls-18{stroke-width:4px;}.cls-19{stroke:#b59b8f;stroke-width:6px;}.cls-20{letter-spacing:0.09em;}.cls-21{letter-spacing:0.05em;}.cls-23{letter-spacing:0.12em;}.cls-24{fill:#b59b8f;}.cls-25{font-size:12.79px;letter-spacing:0.14em;}</style><clipPath id="clip-path"><rect class="cls-1" x="1" y="1" width="918.81" height="476.11"/></clipPath></defs><title>Asset 10</title><g id="Layer_2" data-name="Layer 2"><g id="Layer_1-2" data-name="Layer 1"><rect class="cls-2" x="1" y="1" width="918.81" height="476.11"/><g class="cls-3"><path class="cls-4" d="M267.82,370c0-.9-36.11,0-36.11,0l-106.61-.2"/><polyline class="cls-4" points="586.78 317.43 753.67 317.43 753.67 226.62 835.51 226.62 835.51 272.02 739.39 272.16 716.37 255.81"/><line class="cls-4" x1="224.22" y1="181.85" x2="123.83" y2="181.85"/><line class="cls-4" x1="125.1" y1="276.49" x2="235.93" y2="276.49"/><line class="cls-4" x1="125.1" y1="325.09" x2="221.03" y2="325.09"/><path class="cls-5" d="M445,294l-.4-.21-58.61-30,59-30.23,59,30.23ZM389.8,263.73,445,292l55.17-28.26L445,235.46Z"/><path class="cls-5" d="M410.15,268c-2.37,0-4.61-1.49-4.61-4s2.28-4,4.62-4,4.64,1.33,4.64,3.94-2.27,4.08-4.65,4.08m0-6.48c-1.51,0-3.11.75-3.11,2.47s1.63,2.47,3.12,2.47,3.09-.89,3.09-2.53-1.63-2.41-3.1-2.41"/><polygon class="cls-5" points="422.5 261.76 422.5 263.15 426.75 263.15 426.75 264.64 422.5 264.64 422.5 267.79 421.01 267.79 421.01 260.25 427.68 260.25 427.68 261.76 422.5 261.76"/><polygon class="cls-5" points="434.73 261.76 434.73 263.15 438.98 263.15 438.98 264.64 434.73 264.64 434.73 267.79 433.25 267.79 433.25 260.25 439.91 260.25 439.91 261.76 434.73 261.76"/><path class="cls-5" d="M448.36,268.05a6,6,0,0,1-4.23-1.34l.69-1.35a6.24,6.24,0,0,0,4,1.16c.66,0,1.89-.2,1.89-1.08,0-.61-.65-.72-1.13-.75-.76-.05-1.5,0-2.26-.06-1.38-.06-2.74-.74-2.74-2.31,0-1.89,2-2.31,3.53-2.31a7.18,7.18,0,0,1,3.64,1l-.69,1.34a6.81,6.81,0,0,0-3.31-.83c-.54,0-1.66.15-1.66.88s.88.71,1.34.72c.65,0,1.3,0,2,0,1.51.05,2.85.65,2.85,2.37,0,2.09-2.25,2.53-3.91,2.53"/><rect class="cls-5" x="457.97" y="260.25" width="1.48" height="7.53"/><polygon class="cls-5" points="469.08 261.75 469.08 267.79 467.58 267.79 467.58 261.75 464.85 261.75 464.85 260.25 471.92 260.25 471.92 261.75 469.08 261.75"/><polygon class="cls-5" points="477.58 267.79 477.58 260.25 484.24 260.25 484.24 261.76 479.06 261.76 479.06 263.15 483.43 263.15 483.43 264.64 479.06 264.64 479.06 266.27 484.41 266.27 484.41 267.79 477.58 267.79"/><path class="cls-5" d="M436.71,279.28v-.91c2-1.43,2.34-1.74,2.34-2.2s-.29-.47-.62-.47a1.7,1.7,0,0,0-1.22.5l-.65-.78a2.5,2.5,0,0,1,1.85-.76c1.07,0,1.84.6,1.84,1.51,0,.7-.5,1.3-1.63,2.09h1.66v1Z"/><path class="cls-5" d="M441.44,277c0-1.2.62-2.35,1.95-2.35s2,1.15,2,2.35-.62,2.36-2,2.36-1.95-1.16-1.95-2.36m2.72,0c0-.81-.22-1.31-.77-1.31s-.76.5-.76,1.31.22,1.32.76,1.32.77-.51.77-1.32"/><polygon class="cls-5" points="447.7 279.28 447.7 276.23 446.93 277 446.26 276.3 447.85 274.73 448.87 274.73 448.87 279.28 447.7 279.28"/><path class="cls-5" d="M450.16,278.08a1.31,1.31,0,0,1,.93-1.15,1.12,1.12,0,0,1-.85-1.06c0-.88,1-1.21,1.86-1.21s1.86.33,1.86,1.21a1.13,1.13,0,0,1-.86,1.06,1.31,1.31,0,0,1,.93,1.15c0,.89-.95,1.29-1.93,1.29s-1.94-.39-1.94-1.29m2.68-.16c0-.28-.46-.42-.74-.45s-.74.17-.74.45.3.41.74.41.74-.17.74-.41m-.09-1.85c0-.24-.26-.37-.65-.37s-.67.13-.67.37.39.36.67.41.65-.18.65-.41"/><path class="cls-5" d="M437.21,250.39a2.44,2.44,0,1,1,2.44,2.36,2.32,2.32,0,0,1-2.44-2.36m3.68,0a1.24,1.24,0,1,0-1.24,1.32,1.23,1.23,0,0,0,1.24-1.32"/><polygon class="cls-5" points="446.06 252.67 444.87 250.95 444.56 251.34 444.56 252.67 443.38 252.67 443.38 248.11 444.56 248.11 444.56 249.98 445.96 248.11 447.41 248.11 445.64 250.24 447.5 252.67 446.06 252.67"/><path class="cls-5" d="M448,250.39a2.33,2.33,0,0,1,2.47-2.35,2.11,2.11,0,0,1,2,1.21l-1,.49a1.09,1.09,0,0,0-1-.67,1.32,1.32,0,0,0,0,2.64,1.1,1.1,0,0,0,1-.66l1,.48a2.14,2.14,0,0,1-2,1.22,2.34,2.34,0,0,1-2.47-2.36"/><rect class="cls-5" x="412.97" y="250" width="20.28" height="1.75"/><rect class="cls-5" x="456.68" y="250" width="20.28" height="1.75"/><rect class="cls-5" x="412.97" y="276" width="20.28" height="1.75"/><rect class="cls-5" x="456.68" y="276" width="20.28" height="1.75"/><text class="cls-6" transform="translate(325.04 80.54)">RENO <tspan class="cls-7" x="64.29" y="0">A</tspan><tspan class="cls-8" x="77.52" y="0">VE</tspan></text><text class="cls-9" transform="translate(114.96 365.28) rotate(-90.12)">S ROBINSON <tspan class="cls-10" x="135.17" y="0">A</tspan><tspan class="cls-8" x="148.4" y="0">VE</tspan></text><text class="cls-11" transform="translate(566.09 127.34)">B<tspan class="cls-12" x="13.74" y="0">AS</tspan><tspan x="40.69" y="0">S </tspan><tspan x="0" y="15">PRO SHOP</tspan></text><path class="cls-13" d="M463.29,477.11c28.07-33.93,56.44-62,80-72.71,59.19-26.85,275.94-70.76,375.38-90.06V371c-101.06,18.15-321.74,60.77-359.19,87.71-6,4.28-12.77,10.6-20.12,18.38Z"/><rect class="cls-2" x="210.13" y="216.61" width="19.52" height="148.08" transform="matrix(1, 0.04, -0.04, 1, 10.75, -7.83)"/><text class="cls-9" transform="translate(223.23 357.37) rotate(-88.24)">S SHIEL<tspan class="cls-12" x="78.78" y="0">D</tspan><tspan class="cls-8" x="93.33" y="0">S B</tspan><tspan class="cls-14" x="126.5" y="0">L</tspan><tspan class="cls-8" x="136.75" y="0">VD</tspan></text><text class="cls-11" transform="translate(325.04 167.54)">O<tspan class="cls-15" x="15.79" y="0">K</tspan><tspan class="cls-16" x="28.78" y="0">C B</tspan><tspan class="cls-14" x="63.52" y="0">L</tspan><tspan x="73.78" y="0">VD</tspan></text><line class="cls-17" x1="226.88" y1="477.11" x2="248.37" y2="1"/><line class="cls-17" x1="1" y1="86.15" x2="919.81" y2="86.15"/><polyline class="cls-17" points="240.56 174.04 609.8 174.04 716.37 255.81"/><line class="cls-17" x1="123.83" y1="86.15" x2="126.43" y2="477.11"/><polyline class="cls-18" points="747.06 86.15 747.06 209.78 708.69 267.75 586.78 275.42 586.78 477.11"/><polyline class="cls-19" points="1 437.84 279.85 445.94 416.69 404.4 705.71 164.59 919.81 154.2"/><rect class="cls-2" x="481.26" y="322.98" width="133.21" height="52.18"/><rect class="cls-2" x="495.56" y="346.54" width="113.11" height="28.62"/><text class="cls-11" transform="translate(490.8 341.88)">B<tspan class="cls-20" x="13.74" y="0">O</tspan><tspan class="cls-21" x="28.82" y="0">A</tspan><tspan class="cls-22" x="42.21" y="0">THOUSE</tspan><tspan x="14.82" y="26.1">DI</tspan><tspan class="cls-23" x="37.09" y="26.1">S</tspan><tspan class="cls-22" x="49.28" y="26.1">TRICT</tspan></text><path class="cls-24" d="M363.67,407.51c-.71,1-3.62,2-5.87,2.08s-3.55-1-6-3v-.08l-.05,0,0,0v.08c-2.49,2-3.81,3-6,3s-5.17-1.1-5.88-2.08a33.74,33.74,0,0,0-4.21,9h32.25A37.22,37.22,0,0,0,363.67,407.51Z"/><path class="cls-24" d="M334.56,423.25c.18,7,3.59,14.67,17.11,18.92v0l0,0,.05,0v0c13.52-4.25,16.91-11.94,17.1-18.92a20.2,20.2,0,0,0-.76-5.64H335.25A21.68,21.68,0,0,0,334.56,423.25Z"/><path class="cls-2" d="M335.54,416.54c-.1.35-.2.7-.29,1.07H368.1c-.1-.36-.2-.72-.31-1.07Z"/><text class="cls-25" transform="translate(341.82 430.79)">44</text></g><rect class="cls-26" x="1" y="1" width="917.68" height="476.11"/></g></g></svg>